<svg xmlns="http://www.w3.org/2000/svg" viewBox="0 0 800 500" role="img" aria-labelledby="title desc">
  <title id="title">Kuala Lumpur skyline illustration</title>
  <desc id="desc">A night blue skyline with twin towers inspired by Kuala Lumpur.</desc>
  <defs>
    <linearGradient id="sky" x1="0" y1="0" x2="0" y2="1">
      <stop offset="0%" stop-color="#0f395c"/>
      <stop offset="55%" stop-color="#1f5f7f"/>
      <stop offset="100%" stop-color="#74c69d"/>
    </linearGradient>
  </defs>
  <rect width="800" height="500" fill="url(#sky)"/>
  <circle cx="650" cy="92" r="42" fill="#d7fff2" opacity="0.45"/>
  <rect y="390" width="800" height="110" fill="#102f32"/>
  <path d="M162 230h51v160h-51zM228 195h65v195h-65zM310 110h46v280h-46zM369 150h31v240h-31zM418 110h46v280h-46zM478 178h67v212h-67zM563 212h55v178h-55z" fill="#0c2838"/>
  <path d="M333 110l0-36 11-13 11 13v36ZM441 110V74l11-13 11 13v36Z" fill="#0c2838"/>
  <rect x="355" y="214" width="64" height="12" fill="#d5fff4" opacity="0.38"/>
  <path d="M317 137h22m-22 29h22m-22 29h22m-22 29h22m123-87h22m-22 29h22m-22 29h22m-22 29h22" fill="none" stroke="#d5fff4" stroke-width="4" stroke-linecap="round" opacity="0.34"/>
  <path d="M92 433c77 8 153 8 230 0m240 12c50 5 99 5 149 0" fill="none" stroke="#72e2bd" stroke-width="4" stroke-linecap="round" opacity="0.4"/>
</svg>
