<svg xmlns="http://www.w3.org/2000/svg" viewBox="0 0 220 56" role="img" aria-label="GitHub logo">
  <circle cx="28" cy="28" r="16" fill="#111111"/>
  <path d="M22 37c-4 1-4-2-6-3 2 0 3 0 4 2 1 1 2 1 2-1v-3c-5-1-7-4-7-8 0-2 1-4 3-5-1-1-1-3 0-5 0 0 2 0 5 3a18 18 0 0 1 10 0c3-3 5-3 5-3 1 2 1 4 0 5 2 1 3 3 3 5 0 4-2 7-7 8v5c0 1 1 2 2 1 1-2 2-2 4-2-2 1-2 4-6 3" fill="#ffffff"/>
  <text x="58" y="38" font-family="Arial, Helvetica, sans-serif" font-size="26" font-weight="700" fill="#111111">GitHub</text>
</svg>
